<svg width="128" height="32" viewBox="0 0 128 32" fill="none" xmlns="http://www.w3.org/2000/svg">
<path d="M55.8519 25H52.0044L44.5147 12.7138V25H40.6672V6.32701H44.5147L52.0172 18.6389V6.32701H55.8519V25ZM65.3551 25.2565C63.3202 25.2565 61.6615 24.6324 60.379 23.3841C59.1051 22.1358 58.4681 20.4728 58.4681 18.3952V18.0361C58.4681 16.6425 58.7375 15.3985 59.2761 14.3041C59.8147 13.2011 60.5757 12.3547 61.5589 11.7647C62.5507 11.1663 63.6793 10.867 64.9447 10.867C66.8428 10.867 68.3347 11.4655 69.4206 12.6625C70.5149 13.8595 71.0621 15.5566 71.0621 17.754V19.2673H62.2258C62.3455 20.1736 62.7046 20.9003 63.3031 21.4475C63.9101 21.9947 64.6754 22.2683 65.5988 22.2683C67.0266 22.2683 68.1423 21.751 68.946 20.7165L70.7672 22.7557C70.2114 23.5422 69.459 24.1578 68.51 24.6024C67.561 25.0385 66.5093 25.2565 65.3551 25.2565ZM64.9319 13.868C64.1966 13.868 63.5981 14.116 63.1364 14.6119C62.6832 15.1078 62.3925 15.8174 62.2643 16.7408H67.4199V16.4458C67.4028 15.625 67.1805 14.9923 66.753 14.5477C66.3255 14.0946 65.7184 13.868 64.9319 13.868ZM85.2464 19.9598L87.0676 11.1235H90.6457L87.106 25H84.0024L81.3733 16.2663L78.7442 25H75.6534L72.1138 11.1235H75.6919L77.5002 19.947L80.0395 11.1235H82.7199L85.2464 19.9598ZM100.008 21.1654C100.008 20.7122 99.7813 20.3574 99.3281 20.1009C98.8835 19.8359 98.1653 19.6007 97.1735 19.3955C93.8733 18.703 92.2231 17.3008 92.2231 15.189C92.2231 13.9578 92.7319 12.9318 93.7493 12.111C94.7753 11.2817 96.1134 10.867 97.7635 10.867C99.5248 10.867 100.931 11.2817 101.983 12.111C103.043 12.9404 103.573 14.0176 103.573 15.3429H99.8668C99.8668 14.8128 99.6958 14.3767 99.3538 14.0347C99.0118 13.6842 98.4774 13.5089 97.7507 13.5089C97.1265 13.5089 96.6434 13.65 96.3015 13.9321C95.9595 14.2143 95.7885 14.5734 95.7885 15.0094C95.7885 15.4198 95.9808 15.7533 96.3656 16.0098C96.7589 16.2577 97.4172 16.4757 98.3406 16.6638C99.264 16.8434 100.042 17.0486 100.675 17.2794C102.633 17.9976 103.612 19.2416 103.612 21.0115C103.612 22.2769 103.069 23.3028 101.983 24.0894C100.897 24.8675 99.4948 25.2565 97.7763 25.2565C96.6135 25.2565 95.579 25.0513 94.6727 24.6409C93.775 24.222 93.0696 23.6534 92.5566 22.9352C92.0436 22.2085 91.7871 21.4261 91.7871 20.5882H95.3011C95.3353 21.2466 95.579 21.751 96.0321 22.1016C96.4853 22.4521 97.0923 22.6274 97.8533 22.6274C98.5629 22.6274 99.0973 22.4949 99.4564 22.2298C99.824 21.9562 100.008 21.6014 100.008 21.1654Z" fill="#FBFBFB"/>
<path d="M2.83298 2H24.4906C24.9506 2 25.3237 2.37308 25.3237 2.83311V27.8233C25.3267 28.7272 25.6266 29.6055 26.1775 30.3223H6.16473C3.86557 30.3199 2.00233 28.4566 1.99989 26.1571V2.83311C1.99989 2.37308 2.37296 2 2.83298 2V2ZM7.83091 23.6581H19.4926C19.9527 23.6581 20.3257 23.2853 20.3257 22.8253C20.3257 22.3652 19.9527 21.9922 19.4926 21.9922H7.83091C7.37089 21.9922 6.99782 22.3652 6.99782 22.8253C6.99782 23.2853 7.37089 23.6581 7.83091 23.6581V23.6581ZM7.83091 18.66H19.4926C19.9527 18.66 20.3257 18.2873 20.3257 17.8272C20.3257 17.3672 19.9527 16.9941 19.4926 16.9941H7.83091C7.37089 16.9941 6.99782 17.3672 6.99782 17.8272C6.99782 18.2873 7.37089 18.66 7.83091 18.66V18.66ZM7.83091 13.662H19.4926C19.9527 13.662 20.3257 13.2892 20.3257 12.8292C20.3257 12.3692 19.9527 11.9961 19.4926 11.9961H7.83091C7.37089 11.9961 6.99782 12.3692 6.99782 12.8292C6.99782 13.2892 7.37089 13.662 7.83091 13.662V13.662ZM7.83091 8.66395H19.4926C19.9527 8.66395 20.3257 8.29117 20.3257 7.83115C20.3257 7.37112 19.9527 6.99804 19.4926 6.99804H7.83091C7.37089 6.99804 6.99782 7.37112 6.99782 7.83115C6.99782 8.29117 7.37089 8.66395 7.83091 8.66395V8.66395Z" fill="#8E75FF"/>
<path d="M27.806 5.35522H31.1611C31.6243 5.35522 32 5.72766 32 6.18726V27.8256C32 29.2044 30.8733 30.3223 29.4836 30.3223C28.0939 30.3223 26.9671 29.2044 26.9671 27.8256V6.18726C26.9671 5.72766 27.3428 5.35522 27.806 5.35522V5.35522Z" fill="#8E75FF"/>
</svg>
